<svg width="176" height="30" viewBox="0 0 176 30" fill="none" xmlns="http://www.w3.org/2000/svg">
    <path d="M174.212 18.6502H171.932L171.935 3.78999L167.707 14.9807C166.785 17.1965 163.779 16.8565 163.139 14.9807L158.866 4.49842L158.878 8.5078V14.4716V14.5956V14.7195V14.8451V14.8803V16.8565C158.864 18.0338 158.25 18.5999 157.09 18.6502H155.165V15.5451V2.10686L155.167 2.06331L155.168 2.02312L155.172 1.97958L155.175 1.93771L155.182 1.89584L155.188 1.85564L155.197 1.8121L155.205 1.77191L155.215 1.73004L155.227 1.68817H155.228L155.24 1.64797L155.254 1.60778L155.269 1.56759L155.285 1.52572L155.302 1.4872L155.319 1.447L155.339 1.40681L155.359 1.36829L155.379 1.32977L155.4 1.29125L155.422 1.2544H155.424L155.445 1.21589L155.471 1.17904L155.496 1.14387L155.522 1.10703L155.549 1.07186L155.576 1.03669L155.604 1.00319L155.634 0.969695L155.664 0.9362L155.694 0.902705L155.724 0.870884L155.756 0.840739L155.789 0.808918L155.823 0.778773L155.856 0.750302L155.89 0.721831L155.925 0.695034L155.96 0.668238L155.996 0.641442L156.033 0.616321L156.07 0.591199L156.107 0.567753L156.145 0.545981L156.182 0.524209L156.22 0.502437L156.258 0.48234L156.299 0.463917L156.339 0.44717L156.379 0.428747L156.417 0.413675H156.419L156.459 0.398602L156.499 0.385204L156.541 0.371806L156.581 0.360082L156.622 0.350034L156.664 0.339985L156.704 0.333286H156.706L156.746 0.324912L156.789 0.319888L156.831 0.314864L156.873 0.313189L156.914 0.309839H156.956H157.397H161.196L165.558 12.003L169.778 1.30465C170.109 0.641442 170.64 0.30649 171.376 0.309839H174.222H176V16.8565C175.995 18.0841 175.501 18.6468 174.212 18.6502Z"
          fill="white"/>
    <path d="M143.096 18.9683C140.475 18.9683 138.344 18.1125 136.694 16.406C135.045 14.6944 134.224 12.4669 134.224 9.72199C134.224 6.82298 135.058 4.47831 136.733 2.68967C138.409 0.899347 140.624 0 143.387 0C145.997 0 148.107 0.860827 149.718 2.57076C151.328 4.28739 152.134 6.54832 152.134 9.35019C152.134 12.2325 151.297 14.5587 149.626 16.3222C147.96 18.0857 145.78 18.9683 143.096 18.9683ZM143.273 3.55719C141.829 3.55719 140.681 4.09982 139.833 5.19009C138.983 6.27701 138.557 7.71395 138.557 9.50427C138.557 11.3197 138.983 12.7567 139.833 13.8168C140.681 14.8736 141.794 15.4011 143.17 15.4011C144.592 15.4011 145.715 14.887 146.55 13.8603C147.381 12.8303 147.799 11.4068 147.799 9.58298C147.799 7.67878 147.395 6.19829 146.59 5.14319C145.78 4.08642 144.675 3.55719 143.273 3.55719Z"
          fill="white"/>
    <path d="M131.509 18.3755C130.301 18.7858 129.014 18.9683 127.274 18.9683C124.471 18.9683 122.264 18.1427 120.66 16.488C119.049 14.8334 118.25 12.6294 118.25 9.87439C118.25 6.94189 119.15 4.56205 120.956 2.73656C122.762 0.912745 125.107 0 127.987 0C129.069 0 129.818 0.0686652 130.603 0.205996C131.683 0.393569 132.476 0.760342 132.499 2.07V3.14353C132.391 4.24719 131.474 4.14169 130.973 3.98426C130.144 3.72634 129.269 3.55719 128.319 3.55719C126.603 3.55719 125.216 4.09982 124.162 5.18171C123.109 6.26361 122.583 7.7307 122.583 9.58298C122.583 11.3549 123.079 12.7684 124.076 13.8218C125.067 14.8736 126.408 15.4011 128.092 15.4011C129.231 15.4011 129.972 15.1097 131.02 14.8752C131.638 14.7362 132.501 15.0193 132.499 15.6825V16.6488C132.466 17.7257 132.139 18.1628 131.509 18.3755Z"
          fill="white"/>
    <path d="M107.322 18.9683C104.703 18.9683 102.572 18.1125 100.922 16.406C99.2729 14.6944 98.45 12.4669 98.45 9.72199C98.45 6.82298 99.2863 4.47831 100.961 2.68967C102.637 0.899347 104.852 0 107.615 0C110.225 0 112.335 0.860827 113.945 2.57076C115.556 4.28739 116.36 6.54832 116.36 9.35019C116.36 12.2325 115.525 14.5587 113.854 16.3222C112.188 18.0857 110.008 18.9683 107.322 18.9683ZM107.501 3.55719C106.057 3.55719 104.909 4.09982 104.059 5.19009C103.211 6.27701 102.784 7.71395 102.784 9.50427C102.784 11.3197 103.211 12.7567 104.059 13.8168C104.909 14.8736 106.022 15.4011 107.396 15.4011C108.82 15.4011 109.943 14.887 110.778 13.8603C111.609 12.8303 112.027 11.4068 112.027 9.58298C112.027 7.67878 111.623 6.19829 110.816 5.14319C110.008 4.08642 108.902 3.55719 107.501 3.55719Z"
          fill="white"/>
    <path d="M96.5887 3.67106H90.1401V8.17617H94.275C95.1715 8.17617 96.0662 9.07552 96.0662 9.97319V11.5257H90.1401V18.6501H87.8097C86.915 18.6501 86.0186 17.7508 86.0186 16.8531V0.309814H94.7975C95.6923 0.309814 96.5887 1.20916 96.5887 2.10683V3.67106Z"
          fill="white"/>
    <path d="M79.6284 18.655C78.9523 18.6432 78.0191 18.8057 76.9842 17.5747L70.1499 7.12423C69.7109 6.45097 69.4021 5.94519 69.2318 5.60522H69.1834C69.2485 6.25167 69.2836 7.24146 69.2836 8.56954V17.2482C69.2836 17.8862 68.8395 18.6499 68.2336 18.6499H67.1852H65.394V16.8529V15.771V2.10664C65.5743 0.729986 66.9415 0.279476 67.8463 0.309621C68.8412 0.279476 69.6892 0.401733 70.5239 1.37477L77.086 11.4719C77.4165 11.9794 77.7203 12.4768 78.0041 12.9691H78.0559C77.9874 12.5454 77.9524 11.703 77.9524 10.4503V2.09157C77.9524 1.20897 78.8471 0.309621 79.7485 0.309621H81.8402L81.8419 2.10664V13.4866V16.8529C81.7918 18.1894 80.463 18.67 79.6284 18.655Z"
          fill="white"/>
    <path d="M59.4513 18.6501H57.1226C57.1226 13.1351 57.1226 7.62015 57.1226 2.10683C57.1226 1.20749 58.0173 0.309814 58.9121 0.309814H61.2424V16.8581C61.2424 17.7508 60.3477 18.6501 59.4513 18.6501Z"
          fill="white"/>
    <path d="M52.6604 18.6501H41.4993C39.8984 18.6501 39.2224 16.7962 40.284 15.4949L49.0764 3.67106H40.3825V2.11018C40.3825 1.20916 41.2773 0.309814 42.1837 0.309814H52.3499H54.4065C54.475 1.69484 54.1962 2.90402 53.485 3.89883L45.2436 15.2956H54.4332V16.8581C54.4332 17.7508 53.5385 18.6501 52.6604 18.6501Z"
          fill="white"/>
    <path d="M37.2978 10.7084C37.2978 16.2133 34.7388 18.9683 29.6273 18.9683C24.6611 18.9683 22.1805 16.2787 22.1821 10.901L22.1838 2.10683C22.1838 1.20749 22.6963 0.309814 23.975 0.309814H26.3104V10.9479C26.3104 13.9173 27.4689 15.4011 29.7792 15.4011C32.0462 15.4011 33.1813 13.9692 33.1813 11.102V2.10683C33.1813 1.20749 34.0944 0.309814 34.9691 0.309814H37.2978V10.7084Z"
          fill="white"/>
    <path fill-rule="evenodd" clip-rule="evenodd"
          d="M18.1455 0.333191H2.38379C1.0717 0.333191 0 1.41006 0 2.72475V3.25732C0.430685 3.32264 0.909781 3.44992 1.42894 3.63582C3.06154 4.21696 5.09477 5.36585 7.27825 6.95185C9.05274 5.62544 10.687 4.67752 12.0108 4.20524C13.3045 3.74635 14.3094 3.73966 14.8703 4.28228C15.508 4.89357 15.4813 6.11949 14.9137 7.72391C14.3345 9.3635 13.1893 11.4034 11.6085 13.594C12.9306 15.3742 13.8754 17.0121 14.3462 18.3419C14.3695 18.4072 14.3912 18.4742 14.4129 18.5395H15.7634C17.0738 18.5395 18.1455 17.4643 18.1455 16.148V0.333191ZM0 10.3751V16.148C0 17.0423 0.495789 17.8261 1.22528 18.2364C1.78284 18.2531 2.45557 18.1158 3.22179 17.8395C4.78094 17.2767 6.72236 16.1379 8.84574 14.5435C8.86243 14.5301 8.88747 14.5335 8.90083 14.5502C8.91251 14.5653 8.91084 14.5888 8.89582 14.6022C8.2982 15.1733 7.70225 15.7159 7.11465 16.2233C6.51537 16.7392 5.92443 17.2215 5.34851 17.6636H5.34684L5.01131 17.9199H5.00964C4.72084 18.1376 4.43539 18.3436 4.15327 18.5395H11.5116C12.0558 17.9098 12.0241 16.7994 11.5116 15.3658C10.9508 13.7999 9.81562 11.8522 8.22475 9.7219C8.21307 9.70515 8.2164 9.68171 8.2331 9.66831C8.24812 9.65659 8.27149 9.65826 8.28318 9.67166H8.28485C8.85409 10.2729 9.39495 10.8708 9.90075 11.4603C10.3999 12.0448 10.869 12.6209 11.2996 13.1836C12.0458 11.7216 12.5283 10.4253 12.7002 9.37858C12.8671 8.36702 12.7436 7.58993 12.2912 7.12602C11.6802 6.50134 10.5401 6.50971 9.04606 7.04898C7.48524 7.6117 5.54382 8.75054 3.42044 10.3449C3.40375 10.3583 3.38038 10.355 3.36702 10.3382C3.35534 10.3215 3.35701 10.2997 3.37036 10.2863C3.96798 9.7152 4.56393 9.17258 5.15153 8.6668C5.73412 8.16437 6.30837 7.69544 6.87093 7.26168C5.41361 6.51138 4.12156 6.02905 3.07823 5.85655C2.06996 5.68908 1.29539 5.81301 0.832992 6.26687C0.208665 6.87983 0.218681 8.02369 0.756203 9.5226C1.3171 11.0885 2.45223 13.0363 4.04143 15.1649C4.05478 15.1833 4.05145 15.2067 4.03308 15.2201C4.01806 15.2319 3.99636 15.2302 3.983 15.2151C3.4121 14.6156 2.8729 14.0177 2.3671 13.4281C1.85295 12.8286 1.37218 12.234 0.929813 11.6563L0.676076 11.318L0.674406 11.3163C0.437362 10.9981 0.212004 10.6832 0 10.3751Z"
          fill="white"/>
    <path d="M68.7961 29.8962L69.7443 25.4497H72.3818L72.24 26.0978H70.2535L70.0214 27.1864H71.9879L71.851 27.8279H69.8912L69.5874 29.2548H71.5489L71.412 29.8962H68.7961ZM73.5854 28.9566L74.2081 28.625C74.3767 29.1174 74.5987 29.3636 74.8758 29.3636C75.0678 29.3636 75.2347 29.3083 75.3816 29.1995C75.5285 29.0906 75.622 28.9449 75.6654 28.7624C75.6721 28.7272 75.6754 28.6853 75.6754 28.6368C75.6754 28.5095 75.5886 28.3521 75.4133 28.1611C75.3566 28.0992 75.2414 27.9769 75.0711 27.7944L74.7289 27.4326C74.6221 27.3187 74.552 27.2283 74.5169 27.163C74.4368 27.0072 74.3967 26.8448 74.3967 26.6773C74.3967 26.6505 74.4001 26.612 74.4084 26.5617C74.4168 26.5115 74.4201 26.4746 74.4201 26.4479C74.4585 26.2988 74.5219 26.1548 74.6137 26.0174C74.7974 25.7461 75.0361 25.5535 75.3332 25.4396C75.4901 25.3777 75.6404 25.3475 75.7839 25.3475C76.0443 25.3475 76.2664 25.4279 76.4533 25.5887C76.5969 25.7143 76.7404 25.9086 76.8807 26.1715L76.2697 26.5735L76.0927 26.282C76.021 26.1631 75.9225 26.0811 75.7956 26.0342L75.642 26.0124C75.4634 26.0124 75.3232 26.0643 75.2214 26.1665C75.1212 26.2703 75.0711 26.411 75.0711 26.5902C75.0711 26.6739 75.1262 26.7878 75.2364 26.9285C75.2631 26.9637 75.3015 27.0005 75.3499 27.0424L75.6654 27.307C76.1362 27.7039 76.3732 28.1092 76.3732 28.5212C76.3732 28.96 76.1712 29.3318 75.7672 29.6332C75.44 29.8778 75.1129 30 74.7857 30C74.4618 30 74.2014 29.9029 74.0028 29.7069C73.8392 29.5462 73.7006 29.2966 73.5854 28.9566ZM80.0324 26.0928H79.0892L79.2261 25.4497H81.7634L81.6249 26.0928H80.6867L79.8754 29.8962H79.2211L80.0324 26.0928ZM83.7883 29.037C83.8918 29.037 83.9786 29.0739 84.0487 29.1492C84.1189 29.2229 84.1539 29.3117 84.1539 29.4155C84.1539 29.4574 84.1522 29.4875 84.1489 29.506C84.1255 29.6282 84.0571 29.7388 83.9452 29.8342C83.8334 29.9297 83.7149 29.9766 83.588 29.9766C83.4828 29.9766 83.3944 29.9381 83.3226 29.8627C83.2525 29.7857 83.2174 29.6935 83.2174 29.5864C83.2174 29.5495 83.2191 29.5227 83.2241 29.506C83.2541 29.3804 83.3243 29.2715 83.4344 29.1777C83.5446 29.0839 83.6631 29.037 83.7883 29.037ZM89.2988 27.0039H88.6694C88.7696 26.5299 88.9816 26.1397 89.3104 25.8349C89.656 25.51 90.0633 25.3475 90.5324 25.3475C90.7143 25.3475 90.888 25.3844 91.0515 25.4564C91.3721 25.5971 91.5707 25.8399 91.6508 26.1832C91.6709 26.2636 91.6792 26.3457 91.6792 26.4294C91.6792 26.9687 91.4138 27.4728 90.8796 27.9434L90.4456 28.3269L89.3722 29.2598H91.1651L91.0349 29.8962H87.8081L90.4923 27.5147C90.5925 27.4259 90.6876 27.3254 90.7778 27.2099C90.9447 27.0005 91.0282 26.7845 91.0282 26.5617C91.0282 26.3792 90.9664 26.2352 90.8429 26.1313C90.7194 26.0292 90.5641 25.9772 90.3771 25.9772C90.0049 25.9772 89.7077 26.1514 89.4874 26.4998L89.3839 26.6991C89.3806 26.7041 89.3522 26.8046 89.2988 27.0039ZM93.609 27.6738C93.7342 27.0424 93.9411 26.5282 94.2316 26.1263C94.6039 25.6071 95.0713 25.3475 95.6305 25.3475C96.0879 25.3475 96.4167 25.5368 96.6187 25.9153C96.7373 26.1363 96.7957 26.3775 96.7957 26.6371C96.7957 27.0374 96.7656 27.3824 96.7039 27.6738C96.5787 28.27 96.3617 28.7841 96.0528 29.2196C95.6839 29.7404 95.2132 30 94.6423 30C94.083 30 93.7275 29.7421 93.5739 29.2263C93.5255 29.0588 93.5004 28.8076 93.5004 28.476C93.5004 28.3487 93.5121 28.2147 93.5338 28.069C93.5455 27.997 93.5706 27.8647 93.609 27.6738ZM94.2349 27.6855C94.2183 27.7424 94.1982 27.848 94.1749 28.0004C94.1365 28.2516 94.1164 28.4408 94.1164 28.5664C94.1164 29.1174 94.3401 29.3921 94.7858 29.3921C95.1848 29.3921 95.517 29.1275 95.7791 28.5966C95.9777 28.198 96.1012 27.7558 96.1497 27.2668C96.1647 27.1178 96.173 26.9955 96.173 26.9C96.173 26.2854 95.9527 25.9772 95.512 25.9772C95.1514 25.9772 94.8609 26.1631 94.6439 26.5333C94.5121 26.7627 94.4269 26.9503 94.3885 27.0943L94.2349 27.6855ZM98.7822 27.6738C98.9074 27.0424 99.1144 26.5282 99.4048 26.1263C99.7771 25.6071 100.243 25.3475 100.804 25.3475C101.259 25.3475 101.59 25.5368 101.792 25.9153C101.909 26.1363 101.969 26.3775 101.969 26.6371C101.969 27.0374 101.937 27.3824 101.877 27.6738C101.752 28.27 101.535 28.7841 101.226 29.2196C100.857 29.7404 100.386 30 99.8155 30C99.2563 30 98.899 29.7421 98.7471 29.2263C98.697 29.0588 98.6737 28.8076 98.6737 28.476C98.6737 28.3487 98.6854 28.2147 98.7071 28.069C98.7187 27.997 98.7438 27.8647 98.7822 27.6738ZM99.4065 27.6855C99.3915 27.7424 99.3715 27.848 99.3481 28.0004C99.3097 28.2516 99.2897 28.4408 99.2897 28.5664C99.2897 29.1174 99.5133 29.3921 99.9574 29.3921C100.358 29.3921 100.689 29.1275 100.952 28.5966C101.149 28.198 101.273 27.7558 101.323 27.2668C101.338 27.1178 101.346 26.9955 101.346 26.9C101.346 26.2854 101.124 25.9772 100.685 25.9772C100.323 25.9772 100.034 26.1631 99.8172 26.5333C99.6853 26.7627 99.5985 26.9503 99.5618 27.0943L99.4065 27.6855ZM104.817 27.0039H104.189C104.288 26.5299 104.501 26.1397 104.828 25.8349C105.174 25.51 105.581 25.3475 106.05 25.3475C106.232 25.3475 106.406 25.3844 106.57 25.4564C106.89 25.5971 107.09 25.8399 107.169 26.1832C107.189 26.2636 107.199 26.3457 107.199 26.4294C107.199 26.9687 106.932 27.4728 106.399 27.9434L105.965 28.3269L104.892 29.2598H106.685L106.553 29.8962H103.326L106.012 27.5147C106.111 27.4259 106.206 27.3254 106.296 27.2099C106.463 27.0005 106.548 26.7845 106.548 26.5617C106.548 26.3792 106.484 26.2352 106.361 26.1313C106.237 26.0292 106.082 25.9772 105.897 25.9772C105.523 25.9772 105.226 26.1514 105.005 26.4998L104.902 26.6991C104.899 26.7041 104.87 26.8046 104.817 27.0039Z"
          fill="white"/>
    <path fill-rule="evenodd" clip-rule="evenodd"
          d="M49.013 27.2449H57.4981C57.6667 27.2449 57.8053 27.3839 57.8053 27.553C57.8053 27.7222 57.6667 27.8595 57.4981 27.8595H49.013C48.8444 27.8595 48.7058 27.7222 48.7058 27.553C48.7058 27.3839 48.8444 27.2449 49.013 27.2449Z"
          fill="white"/>
    <path fill-rule="evenodd" clip-rule="evenodd"
          d="M117.939 27.2449H126.426C126.595 27.2449 126.733 27.3839 126.733 27.553C126.733 27.7222 126.595 27.8595 126.426 27.8595H117.939C117.771 27.8595 117.634 27.7222 117.634 27.553C117.634 27.3839 117.771 27.2449 117.939 27.2449Z"
          fill="white"/>
</svg>
